<!--
  ~ Developed by Benjamin Lefèvre
  ~ Last modified 05/10/18 19:54
  ~ Copyright (c) 2018. All rights reserved.
  -->

<svg width="1155pt" height="764pt"
     viewBox="0.00 0.00 1155.50 764.00" xmlns="http://www.w3.org/2000/svg">
<g id="graph0" class="graph" transform="scale(1 1) rotate(0) translate(4 760)">
<title>G</title>
<polygon fill="#ffffff" stroke="transparent" points="-4,4 -4,-760 1151.4955,-760 1151.4955,4 -4,4"/>
<!-- spacekillerBaseGameUtils -->
<g id="node1" class="node">
<title>spacekillerBaseGameUtils</title>
<polygon fill="none" stroke="#000000" points="402.3193,-684 298.5995,-684 298.5995,-648 402.3193,-648 402.3193,-684"/>
<text text-anchor="middle" x="350.4594" y="-661.8" font-family="Times New Roman" font-size="14.00" fill="#000000">BaseGameUtils</text>
</g>
<!-- comandroidsupportappcompatv7 -->
<g id="node11" class="node">
<title>comandroidsupportappcompatv7</title>
<polygon fill="none" stroke="#000000" points="238.545,-396 142.3738,-396 142.3738,-360 238.545,-360 238.545,-396"/>
<text text-anchor="middle" x="190.4594" y="-373.8" font-family="Times New Roman" font-size="14.00" fill="#000000">appcompat&#45;v7</text>
</g>
<!-- spacekillerBaseGameUtils&#45;&gt;comandroidsupportappcompatv7 -->
<g id="edge1" class="edge">
<title>spacekillerBaseGameUtils&#45;&gt;comandroidsupportappcompatv7</title>
<path fill="none" stroke="#000000" d="M300.2304,-647.9638C282.8684,-639.4752 264.716,-627.6921 252.4594,-612 204.0989,-550.0839 193.3063,-453.8169 191.0028,-406.3828"/>
<polygon fill="#000000" stroke="#000000" points="194.4938,-406.0818 190.6053,-396.2264 187.4992,-406.3557 194.4938,-406.0818"/>
</g>
<!-- comandroidsupportsupportv4 -->
<g id="node12" class="node">
<title>comandroidsupportsupportv4</title>
<polygon fill="none" stroke="#000000" points="325.6166,-324 249.3022,-324 249.3022,-288 325.6166,-288 325.6166,-324"/>
<text text-anchor="middle" x="287.4594" y="-301.8" font-family="Times New Roman" font-size="14.00" fill="#000000">support&#45;v4</text>
</g>
<!-- spacekillerBaseGameUtils&#45;&gt;comandroidsupportsupportv4 -->
<g id="edge2" class="edge">
<title>spacekillerBaseGameUtils&#45;&gt;comandroidsupportsupportv4</title>
<path fill="none" stroke="#000000" d="M331.3985,-647.9596C306.615,-622.4557 266.4594,-573.2284 266.4594,-522 266.4594,-522 266.4594,-522 266.4594,-450 266.4594,-409.2729 274.7864,-362.7384 280.9533,-333.8595"/>
<polygon fill="#000000" stroke="#000000" points="284.3783,-334.5806 283.1082,-324.0621 277.5417,-333.0768 284.3783,-334.5806"/>
</g>
<!-- comgoogleandroidgmsplayservicesgames -->
<g id="node21" class="node">
<title>comgoogleandroidgmsplayservicesgames</title>
<polygon fill="none" stroke="#000000" points="508.7347,-612 378.1841,-612 378.1841,-576 508.7347,-576 508.7347,-612"/>
<text text-anchor="middle" x="443.4594" y="-589.8" font-family="Times New Roman" font-size="14.00" fill="#000000">play&#45;services&#45;games</text>
</g>
<!-- spacekillerBaseGameUtils&#45;&gt;comgoogleandroidgmsplayservicesgames -->
<g id="edge3" class="edge">
<title>spacekillerBaseGameUtils&#45;&gt;comgoogleandroidgmsplayservicesgames</title>
<path fill="none" stroke="#000000" d="M373.9272,-647.8314C385.4921,-638.8779 399.5998,-627.9558 412.0777,-618.2955"/>
<polygon fill="#000000" stroke="#000000" points="414.2344,-621.0521 419.9991,-612.1628 409.9492,-615.5171 414.2344,-621.0521"/>
</g>
<!-- comgoogleandroidgmsplayservicesplus -->
<g id="node25" class="node">
<title>comgoogleandroidgmsplayservicesplus</title>
<polygon fill="none" stroke="#000000" points="412.3053,-540 294.6135,-540 294.6135,-504 412.3053,-504 412.3053,-540"/>
<text text-anchor="middle" x="353.4594" y="-517.8" font-family="Times New Roman" font-size="14.00" fill="#000000">play&#45;services&#45;plus</text>
</g>
<!-- spacekillerBaseGameUtils&#45;&gt;comgoogleandroidgmsplayservicesplus -->
<g id="edge4" class="edge">
<title>spacekillerBaseGameUtils&#45;&gt;comgoogleandroidgmsplayservicesplus</title>
<path fill="none" stroke="#000000" d="M350.8394,-647.7623C351.351,-623.201 352.2667,-579.2474 352.8687,-550.3541"/>
<polygon fill="#000000" stroke="#000000" points="356.3734,-550.1604 353.0825,-540.0896 349.3749,-550.0145 356.3734,-550.1604"/>
</g>
<!-- spacekillerandroid -->
<g id="node2" class="node">
<title>spacekillerandroid</title>
<polygon fill="none" stroke="#000000" points="745.7257,-756 687.1931,-756 687.1931,-720 745.7257,-720 745.7257,-756"/>
<text text-anchor="middle" x="716.4594" y="-733.8" font-family="Times New Roman" font-size="14.00" fill="#000000">android</text>
</g>
<!-- spacekillerandroid&#45;&gt;spacekillerBaseGameUtils -->
<g id="edge6" class="edge">
<title>spacekillerandroid&#45;&gt;spacekillerBaseGameUtils</title>
<path fill="none" stroke="#000000" d="M687.1268,-732.2296C627.7514,-720.5492 492.2089,-693.8852 412.3936,-678.1838"/>
<polygon fill="#000000" stroke="#000000" points="412.9562,-674.7274 402.4687,-676.2313 411.605,-681.5958 412.9562,-674.7274"/>
</g>
<!-- spacekillerspaceKiller -->
<g id="node3" class="node">
<title>spacekillerspaceKiller</title>
<polygon fill="none" stroke="#000000" points="945.2018,-684 865.717,-684 865.717,-648 945.2018,-648 945.2018,-684"/>
<text text-anchor="middle" x="905.4594" y="-661.8" font-family="Times New Roman" font-size="14.00" fill="#000000">spaceKiller</text>
</g>
<!-- spacekillerandroid&#45;&gt;spacekillerspaceKiller -->
<g id="edge5" class="edge">
<title>spacekillerandroid&#45;&gt;spacekillerspaceKiller</title>
<path fill="none" stroke="#000000" d="M745.9907,-726.75C775.4092,-715.5429 821.1092,-698.1334 856.0584,-684.8194"/>
<polygon fill="#000000" stroke="#000000" points="857.5094,-688.0121 865.6083,-681.1814 855.0174,-681.4707 857.5094,-688.0121"/>
</g>
<!-- combadlogicgamesgdxgdxfreetype -->
<g id="node4" class="node">
<title>combadlogicgamesgdxgdxfreetype</title>
<polygon fill="none" stroke="#000000" points="735.9769,-612 648.9419,-612 648.9419,-576 735.9769,-576 735.9769,-612"/>
<text text-anchor="middle" x="692.4594" y="-589.8" font-family="Times New Roman" font-size="14.00" fill="#000000">gdx&#45;freetype</text>
</g>
<!-- spacekillerandroid&#45;&gt;combadlogicgamesgdxgdxfreetype -->
<g id="edge8" class="edge">
<title>spacekillerandroid&#45;&gt;combadlogicgamesgdxgdxfreetype</title>
<path fill="none" stroke="#000000" d="M713.4198,-719.7623C709.3082,-695.0928 701.936,-650.8598 697.1216,-621.9731"/>
<polygon fill="#000000" stroke="#000000" points="700.5708,-621.3781 695.4743,-612.0896 693.666,-622.529 700.5708,-621.3781"/>
</g>
<!-- combadlogicgamesgdxgdxbox2d -->
<g id="node6" class="node">
<title>combadlogicgamesgdxgdxbox2d</title>
<polygon fill="none" stroke="#000000" points="854.6207,-540 778.2981,-540 778.2981,-504 854.6207,-504 854.6207,-540"/>
<text text-anchor="middle" x="816.4594" y="-517.8" font-family="Times New Roman" font-size="14.00" fill="#000000">gdx&#45;box2d</text>
</g>
<!-- spacekillerandroid&#45;&gt;combadlogicgamesgdxgdxbox2d -->
<g id="edge9" class="edge">
<title>spacekillerandroid&#45;&gt;combadlogicgamesgdxgdxbox2d</title>
<path fill="none" stroke="#000000" d="M724.8133,-719.9555C742.3501,-682.0762 783.0882,-594.0818 803.8325,-549.274"/>
<polygon fill="#000000" stroke="#000000" points="807.0338,-550.6902 808.0589,-540.1451 800.6815,-547.7493 807.0338,-550.6902"/>
</g>
<!-- combadlogicgamesgdxgdxbackendandroid -->
<g id="node26" class="node">
<title>combadlogicgamesgdxgdxbackendandroid</title>
<polygon fill="none" stroke="#000000" points="688.1905,-684 552.7283,-684 552.7283,-648 688.1905,-648 688.1905,-684"/>
<text text-anchor="middle" x="620.4594" y="-661.8" font-family="Times New Roman" font-size="14.00" fill="#000000">gdx&#45;backend&#45;android</text>
</g>
<!-- spacekillerandroid&#45;&gt;combadlogicgamesgdxgdxbackendandroid -->
<g id="edge7" class="edge">
<title>spacekillerandroid&#45;&gt;combadlogicgamesgdxgdxbackendandroid</title>
<path fill="none" stroke="#000000" d="M692.2345,-719.8314C680.2966,-710.8779 665.7338,-699.9558 652.8534,-690.2955"/>
<polygon fill="#000000" stroke="#000000" points="654.7765,-687.3629 644.6765,-684.1628 650.5765,-692.9629 654.7765,-687.3629"/>
</g>
<!-- spacekillerspaceKiller&#45;&gt;combadlogicgamesgdxgdxfreetype -->
<g id="edge10" class="edge">
<title>spacekillerspaceKiller&#45;&gt;combadlogicgamesgdxgdxfreetype</title>
<path fill="none" stroke="#000000" d="M865.3957,-652.4574C831.5448,-641.0148 782.7842,-624.5323 745.6627,-611.9842"/>
<polygon fill="#000000" stroke="#000000" points="746.603,-608.6076 736.0087,-608.7209 744.3613,-615.2389 746.603,-608.6076"/>
</g>
<!-- combadlogicgamesgdxgdx -->
<g id="node5" class="node">
<title>combadlogicgamesgdxgdx</title>
<polygon fill="none" stroke="#000000" points="891.4594,-468 837.4594,-468 837.4594,-432 891.4594,-432 891.4594,-468"/>
<text text-anchor="middle" x="864.4594" y="-445.8" font-family="Times New Roman" font-size="14.00" fill="#000000">gdx</text>
</g>
<!-- spacekillerspaceKiller&#45;&gt;combadlogicgamesgdxgdx -->
<g id="edge12" class="edge">
<title>spacekillerspaceKiller&#45;&gt;combadlogicgamesgdxgdx</title>
<path fill="none" stroke="#000000" d="M945.4097,-662.7903C1006.4054,-656.9681 1118.2471,-642.3495 1142.4594,-612 1152.4376,-599.4926 1144.0997,-591.9157 1142.4594,-576 1139.1084,-543.4852 1150.606,-527.0799 1127.4594,-504 1096.1145,-472.7454 966.5194,-458.1439 901.7108,-452.6887"/>
<polygon fill="#000000" stroke="#000000" points="901.768,-449.1819 891.5176,-451.8613 901.2016,-456.159 901.768,-449.1819"/>
</g>
<!-- spacekillerspaceKiller&#45;&gt;combadlogicgamesgdxgdxbox2d -->
<g id="edge11" class="edge">
<title>spacekillerspaceKiller&#45;&gt;combadlogicgamesgdxgdxbox2d</title>
<path fill="none" stroke="#000000" d="M865.3411,-650.1214C848.8425,-641.4329 831.3204,-628.9278 821.4594,-612 810.6761,-593.489 809.9957,-569.0397 811.6967,-550.2963"/>
<polygon fill="#000000" stroke="#000000" points="815.183,-550.6171 812.8761,-540.2765 808.231,-549.7988 815.183,-550.6171"/>
</g>
<!-- combadlogicgamesashleyashley -->
<g id="node7" class="node">
<title>combadlogicgamesashleyashley</title>
<polygon fill="none" stroke="#000000" points="940.4594,-540 886.4594,-540 886.4594,-504 940.4594,-504 940.4594,-540"/>
<text text-anchor="middle" x="913.4594" y="-517.8" font-family="Times New Roman" font-size="14.00" fill="#000000">ashley</text>
</g>
<!-- spacekillerspaceKiller&#45;&gt;combadlogicgamesashleyashley -->
<g id="edge13" class="edge">
<title>spacekillerspaceKiller&#45;&gt;combadlogicgamesashleyashley</title>
<path fill="none" stroke="#000000" d="M912.2789,-647.7996C915.7875,-637.4645 919.6911,-624.1925 921.4594,-612 924.438,-591.4626 922.2017,-568.1168 919.3448,-550.3498"/>
<polygon fill="#000000" stroke="#000000" points="922.763,-549.5792 917.5766,-540.3406 915.8697,-550.797 922.763,-549.5792"/>
</g>
<!-- combadlogicgamesbox2dlightsbox2dlights -->
<g id="node8" class="node">
<title>combadlogicgamesbox2dlightsbox2dlights</title>
<polygon fill="none" stroke="#000000" points="912.5759,-612 830.3429,-612 830.3429,-576 912.5759,-576 912.5759,-612"/>
<text text-anchor="middle" x="871.4594" y="-589.8" font-family="Times New Roman" font-size="14.00" fill="#000000">box2dlights</text>
</g>
<!-- spacekillerspaceKiller&#45;&gt;combadlogicgamesbox2dlightsbox2dlights -->
<g id="edge14" class="edge">
<title>spacekillerspaceKiller&#45;&gt;combadlogicgamesbox2dlightsbox2dlights</title>
<path fill="none" stroke="#000000" d="M896.8798,-647.8314C893.1236,-639.8771 888.6337,-630.369 884.4796,-621.5723"/>
<polygon fill="#000000" stroke="#000000" points="887.5895,-619.9612 880.1546,-612.4133 881.2598,-622.9503 887.5895,-619.9612"/>
</g>
<!-- comgithubAnukengdxpostprocessing -->
<g id="node9" class="node">
<title>comgithubAnukengdxpostprocessing</title>
<polygon fill="none" stroke="#000000" points="1118.8249,-540 994.0939,-540 994.0939,-504 1118.8249,-504 1118.8249,-540"/>
<text text-anchor="middle" x="1056.4594" y="-517.8" font-family="Times New Roman" font-size="14.00" fill="#000000">gdx&#45;postprocessing</text>
</g>
<!-- spacekillerspaceKiller&#45;&gt;comgithubAnukengdxpostprocessing -->
<g id="edge15" class="edge">
<title>spacekillerspaceKiller&#45;&gt;comgithubAnukengdxpostprocessing</title>
<path fill="none" stroke="#000000" d="M945.388,-662.0227C1002.6135,-655.4045 1103.4956,-640.0068 1125.4594,-612 1135.333,-599.4098 1132.4674,-590.3836 1125.4594,-576 1119.729,-564.2386 1110.0607,-554.2849 1099.7473,-546.2518"/>
<polygon fill="#000000" stroke="#000000" points="1101.5568,-543.2412 1091.4009,-540.2233 1097.4581,-548.9159 1101.5568,-543.2412"/>
</g>
<!-- orgmini2Dxuniversaltweenengine -->
<g id="node10" class="node">
<title>orgmini2Dxuniversaltweenengine</title>
<polygon fill="none" stroke="#000000" points="1116.3429,-612 968.5759,-612 968.5759,-576 1116.3429,-576 1116.3429,-612"/>
<text text-anchor="middle" x="1042.4594" y="-589.8" font-family="Times New Roman" font-size="14.00" fill="#000000">universal&#45;tween&#45;engine</text>
</g>
<!-- spacekillerspaceKiller&#45;&gt;orgmini2Dxuniversaltweenengine -->
<g id="edge16" class="edge">
<title>spacekillerspaceKiller&#45;&gt;orgmini2Dxuniversaltweenengine</title>
<path fill="none" stroke="#000000" d="M940.0303,-647.8314C957.8779,-638.4516 979.8368,-626.9112 998.8394,-616.9244"/>
<polygon fill="#000000" stroke="#000000" points="1000.6758,-619.9132 1007.8996,-612.1628 997.4193,-613.7168 1000.6758,-619.9132"/>
</g>
<!-- combadlogicgamesgdxgdxfreetype&#45;&gt;combadlogicgamesgdxgdx -->
<g id="edge17" class="edge">
<title>combadlogicgamesgdxgdxfreetype&#45;&gt;combadlogicgamesgdxgdx</title>
<path fill="none" stroke="#000000" d="M705.068,-575.8008C719.1641,-556.3646 743.4498,-525.4659 769.4594,-504 787.2336,-489.3309 809.5303,-476.4243 828.0554,-466.9104"/>
<polygon fill="#000000" stroke="#000000" points="829.7098,-469.9963 837.0818,-462.3868 826.5735,-463.7382 829.7098,-469.9963"/>
</g>
<!-- combadlogicgamesgdxgdxbox2d&#45;&gt;combadlogicgamesgdxgdx -->
<g id="edge18" class="edge">
<title>combadlogicgamesgdxgdxbox2d&#45;&gt;combadlogicgamesgdxgdx</title>
<path fill="none" stroke="#000000" d="M828.5718,-503.8314C833.9875,-495.7079 840.4836,-485.9637 846.4515,-477.0118"/>
<polygon fill="#000000" stroke="#000000" points="849.549,-478.6753 852.1839,-468.4133 843.7247,-474.7923 849.549,-478.6753"/>
</g>
<!-- combadlogicgamesashleyashley&#45;&gt;combadlogicgamesgdxgdx -->
<g id="edge19" class="edge">
<title>combadlogicgamesashleyashley&#45;&gt;combadlogicgamesgdxgdx</title>
<path fill="none" stroke="#000000" d="M901.0946,-503.8314C895.5085,-495.6232 888.7964,-485.7606 882.6522,-476.7323"/>
<polygon fill="#000000" stroke="#000000" points="885.5104,-474.7112 876.9907,-468.4133 879.7234,-478.6496 885.5104,-474.7112"/>
</g>
<!-- combadlogicgamesbox2dlightsbox2dlights&#45;&gt;combadlogicgamesgdxgdxbox2d -->
<g id="edge20" class="edge">
<title>combadlogicgamesbox2dlightsbox2dlights&#45;&gt;combadlogicgamesgdxgdxbox2d</title>
<path fill="none" stroke="#000000" d="M857.5806,-575.8314C851.2458,-567.5386 843.621,-557.557 836.6668,-548.4533"/>
<polygon fill="#000000" stroke="#000000" points="839.3769,-546.2353 830.5251,-540.4133 833.8142,-550.4847 839.3769,-546.2353"/>
</g>
<!-- comgithubAnukengdxpostprocessing&#45;&gt;combadlogicgamesgdxgdx -->
<g id="edge21" class="edge">
<title>comgithubAnukengdxpostprocessing&#45;&gt;combadlogicgamesgdxgdx</title>
<path fill="none" stroke="#000000" d="M1008.0097,-503.8314C974.8734,-491.4053 931.6253,-475.1872 901.2936,-463.8128"/>
<polygon fill="#000000" stroke="#000000" points="902.128,-460.3878 891.5357,-460.1536 899.6701,-466.9421 902.128,-460.3878"/>
</g>
<!-- comandroidsupportappcompatv7&#45;&gt;comandroidsupportsupportv4 -->
<g id="edge22" class="edge">
<title>comandroidsupportappcompatv7&#45;&gt;comandroidsupportsupportv4</title>
<path fill="none" stroke="#000000" d="M214.9366,-359.8314C226.9989,-350.8779 241.7134,-339.9558 254.728,-330.2955"/>
<polygon fill="#000000" stroke="#000000" points="257.0464,-332.9335 262.99,-324.1628 252.8742,-327.3127 257.0464,-332.9335"/>
</g>
<!-- comandroidsupportsupportvectordrawable -->
<g id="node19" class="node">
<title>comandroidsupportsupportvectordrawable</title>
<polygon fill="none" stroke="#000000" points="158.0589,-252 4.8599,-252 4.8599,-216 158.0589,-216 158.0589,-252"/>
<text text-anchor="middle" x="81.4594" y="-229.8" font-family="Times New Roman" font-size="14.00" fill="#000000">support&#45;vector&#45;drawable</text>
</g>
<!-- comandroidsupportappcompatv7&#45;&gt;comandroidsupportsupportvectordrawable -->
<g id="edge23" class="edge">
<title>comandroidsupportappcompatv7&#45;&gt;comandroidsupportsupportvectordrawable</title>
<path fill="none" stroke="#000000" d="M190.751,-359.7471C190.1824,-340.265 186.6599,-309.3272 171.4594,-288 162.4369,-275.3409 149.4328,-265.122 136.1029,-257.1229"/>
<polygon fill="#000000" stroke="#000000" points="137.7653,-254.0422 127.3347,-252.1835 134.3295,-260.1411 137.7653,-254.0422"/>
</g>
<!-- comandroidsupportanimatedvectordrawable -->
<g id="node20" class="node">
<title>comandroidsupportanimatedvectordrawable</title>
<polygon fill="none" stroke="#000000" points="162.8782,-324 .0406,-324 .0406,-288 162.8782,-288 162.8782,-324"/>
<text text-anchor="middle" x="81.4594" y="-301.8" font-family="Times New Roman" font-size="14.00" fill="#000000">animated&#45;vector&#45;drawable</text>
</g>
<!-- comandroidsupportappcompatv7&#45;&gt;comandroidsupportanimatedvectordrawable -->
<g id="edge24" class="edge">
<title>comandroidsupportappcompatv7&#45;&gt;comandroidsupportanimatedvectordrawable</title>
<path fill="none" stroke="#000000" d="M162.9541,-359.8314C149.1414,-350.7074 132.2338,-339.539 117.4065,-329.7449"/>
<polygon fill="#000000" stroke="#000000" points="119.229,-326.7541 108.9559,-324.1628 115.3708,-332.5949 119.229,-326.7541"/>
</g>
<!-- comandroidsupportsupportcompat -->
<g id="node13" class="node">
<title>comandroidsupportsupportcompat</title>
<polygon fill="none" stroke="#000000" points="371.3263,-108 267.5925,-108 267.5925,-72 371.3263,-72 371.3263,-108"/>
<text text-anchor="middle" x="319.4594" y="-85.8" font-family="Times New Roman" font-size="14.00" fill="#000000">support&#45;compat</text>
</g>
<!-- comandroidsupportsupportv4&#45;&gt;comandroidsupportsupportcompat -->
<g id="edge25" class="edge">
<title>comandroidsupportsupportv4&#45;&gt;comandroidsupportsupportcompat</title>
<path fill="none" stroke="#000000" d="M325.7413,-299.388C359.6434,-292.1051 409.2322,-277.8377 445.4594,-252 478.4645,-228.4603 488.3028,-218.3453 501.4594,-180 506.652,-164.866 511.0297,-156.8222 501.4594,-144 486.904,-124.4988 428.5857,-109.5281 381.8336,-100.3498"/>
<polygon fill="#000000" stroke="#000000" points="382.2301,-96.8623 371.7509,-98.4234 380.9164,-103.7379 382.2301,-96.8623"/>
</g>
<!-- comandroidsupportsupportmediacompat -->
<g id="node15" class="node">
<title>comandroidsupportsupportmediacompat</title>
<polygon fill="none" stroke="#000000" points="200.6974,-180 58.2214,-180 58.2214,-144 200.6974,-144 200.6974,-180"/>
<text text-anchor="middle" x="129.4594" y="-157.8" font-family="Times New Roman" font-size="14.00" fill="#000000">support&#45;media&#45;compat</text>
</g>
<!-- comandroidsupportsupportv4&#45;&gt;comandroidsupportsupportmediacompat -->
<g id="edge26" class="edge">
<title>comandroidsupportsupportv4&#45;&gt;comandroidsupportsupportmediacompat</title>
<path fill="none" stroke="#000000" d="M267.4486,-287.7623C239.431,-262.2272 188.4149,-215.7316 156.8796,-186.9906"/>
<polygon fill="#000000" stroke="#000000" points="159.0563,-184.2389 149.3077,-180.0896 154.3411,-189.4125 159.0563,-184.2389"/>
</g>
<!-- comandroidsupportsupportcoreutils -->
<g id="node16" class="node">
<title>comandroidsupportsupportcoreutils</title>
<polygon fill="none" stroke="#000000" points="333.9836,-180 218.9352,-180 218.9352,-144 333.9836,-144 333.9836,-180"/>
<text text-anchor="middle" x="276.4594" y="-157.8" font-family="Times New Roman" font-size="14.00" fill="#000000">support&#45;core&#45;utils</text>
</g>
<!-- comandroidsupportsupportv4&#45;&gt;comandroidsupportsupportcoreutils -->
<g id="edge27" class="edge">
<title>comandroidsupportsupportv4&#45;&gt;comandroidsupportsupportcoreutils</title>
<path fill="none" stroke="#000000" d="M286.0662,-287.7623C284.19,-263.201 280.8325,-219.2474 278.6253,-190.3541"/>
<polygon fill="#000000" stroke="#000000" points="282.0928,-189.794 277.8412,-180.0896 275.1132,-190.3272 282.0928,-189.794"/>
</g>
<!-- comandroidsupportsupportcoreui -->
<g id="node17" class="node">
<title>comandroidsupportsupportcoreui</title>
<polygon fill="none" stroke="#000000" points="492.7572,-180 390.1616,-180 390.1616,-144 492.7572,-144 492.7572,-180"/>
<text text-anchor="middle" x="441.4594" y="-157.8" font-family="Times New Roman" font-size="14.00" fill="#000000">support&#45;core&#45;ui</text>
</g>
<!-- comandroidsupportsupportv4&#45;&gt;comandroidsupportsupportcoreui -->
<g id="edge28" class="edge">
<title>comandroidsupportsupportv4&#45;&gt;comandroidsupportsupportcoreui</title>
<path fill="none" stroke="#000000" d="M325.8106,-300.6721C356.4916,-294.3574 398.2529,-280.7873 422.4594,-252 436.8545,-234.8808 441.1854,-209.5535 442.1557,-190.1242"/>
<polygon fill="#000000" stroke="#000000" points="445.657,-190.1056 442.3916,-180.0265 438.6589,-189.9421 445.657,-190.1056"/>
</g>
<!-- comandroidsupportsupportfragment -->
<g id="node18" class="node">
<title>comandroidsupportsupportfragment</title>
<polygon fill="none" stroke="#000000" points="413.1476,-252 299.7712,-252 299.7712,-216 413.1476,-216 413.1476,-252"/>
<text text-anchor="middle" x="356.4594" y="-229.8" font-family="Times New Roman" font-size="14.00" fill="#000000">support&#45;fragment</text>
</g>
<!-- comandroidsupportsupportv4&#45;&gt;comandroidsupportsupportfragment -->
<g id="edge29" class="edge">
<title>comandroidsupportsupportv4&#45;&gt;comandroidsupportsupportfragment</title>
<path fill="none" stroke="#000000" d="M304.871,-287.8314C312.9804,-279.3694 322.775,-269.1489 331.6414,-259.8971"/>
<polygon fill="#000000" stroke="#000000" points="334.4212,-262.0549 338.8134,-252.4133 329.3673,-257.2115 334.4212,-262.0549"/>
</g>
<!-- comandroidsupportsupportannotations -->
<g id="node14" class="node">
<title>comandroidsupportsupportannotations</title>
<polygon fill="none" stroke="#000000" points="383.1616,-36 255.7572,-36 255.7572,0 383.1616,0 383.1616,-36"/>
<text text-anchor="middle" x="319.4594" y="-13.8" font-family="Times New Roman" font-size="14.00" fill="#000000">support&#45;annotations</text>
</g>
<!-- comandroidsupportsupportcompat&#45;&gt;comandroidsupportsupportannotations -->
<g id="edge30" class="edge">
<title>comandroidsupportsupportcompat&#45;&gt;comandroidsupportsupportannotations</title>
<path fill="none" stroke="#000000" d="M319.4594,-71.8314C319.4594,-64.131 319.4594,-54.9743 319.4594,-46.4166"/>
<polygon fill="#000000" stroke="#000000" points="322.9595,-46.4132 319.4594,-36.4133 315.9595,-46.4133 322.9595,-46.4132"/>
</g>
<!-- comandroidsupportsupportmediacompat&#45;&gt;comandroidsupportsupportcompat -->
<g id="edge31" class="edge">
<title>comandroidsupportsupportmediacompat&#45;&gt;comandroidsupportsupportcompat</title>
<path fill="none" stroke="#000000" d="M177.4044,-143.8314C203.2676,-134.0306 235.3556,-121.8709 262.4874,-111.5894"/>
<polygon fill="#000000" stroke="#000000" points="263.7483,-114.8545 271.8591,-108.038 261.2678,-108.3087 263.7483,-114.8545"/>
</g>
<!-- comandroidsupportsupportcoreutils&#45;&gt;comandroidsupportsupportcompat -->
<g id="edge32" class="edge">
<title>comandroidsupportsupportcoreutils&#45;&gt;comandroidsupportsupportcompat</title>
<path fill="none" stroke="#000000" d="M287.3101,-143.8314C292.1617,-135.7079 297.9811,-125.9637 303.3274,-117.0118"/>
<polygon fill="#000000" stroke="#000000" points="306.34,-118.7933 308.4626,-108.4133 300.3302,-115.2041 306.34,-118.7933"/>
</g>
<!-- comandroidsupportsupportcoreui&#45;&gt;comandroidsupportsupportcompat -->
<g id="edge33" class="edge">
<title>comandroidsupportsupportcoreui&#45;&gt;comandroidsupportsupportcompat</title>
<path fill="none" stroke="#000000" d="M410.6736,-143.8314C395.0691,-134.6221 375.9354,-123.3301 359.2291,-113.4706"/>
<polygon fill="#000000" stroke="#000000" points="360.6263,-110.2312 350.2353,-108.1628 357.0685,-116.2596 360.6263,-110.2312"/>
</g>
<!-- comandroidsupportsupportfragment&#45;&gt;comandroidsupportsupportcompat -->
<g id="edge34" class="edge">
<title>comandroidsupportsupportfragment&#45;&gt;comandroidsupportsupportcompat</title>
<path fill="none" stroke="#000000" d="M355.2996,-215.7623C353.7882,-197.3587 350.4603,-168.2699 343.4594,-144 340.8843,-135.073 337.1276,-125.7041 333.3476,-117.3232"/>
<polygon fill="#000000" stroke="#000000" points="336.3956,-115.5803 328.9689,-108.0242 330.0626,-118.5625 336.3956,-115.5803"/>
</g>
<!-- comandroidsupportsupportfragment&#45;&gt;comandroidsupportsupportmediacompat -->
<g id="edge35" class="edge">
<title>comandroidsupportsupportfragment&#45;&gt;comandroidsupportsupportmediacompat</title>
<path fill="none" stroke="#000000" d="M299.7633,-216.0171C268.2096,-206.0089 228.7641,-193.4975 195.7835,-183.0367"/>
<polygon fill="#000000" stroke="#000000" points="196.8097,-179.6904 186.2195,-180.0032 194.6933,-186.3628 196.8097,-179.6904"/>
</g>
<!-- comandroidsupportsupportfragment&#45;&gt;comandroidsupportsupportcoreutils -->
<g id="edge36" class="edge">
<title>comandroidsupportsupportfragment&#45;&gt;comandroidsupportsupportcoreutils</title>
<path fill="none" stroke="#000000" d="M336.272,-215.8314C326.608,-207.1337 314.8798,-196.5783 304.3778,-187.1265"/>
<polygon fill="#000000" stroke="#000000" points="306.4147,-184.251 296.6403,-180.1628 301.7319,-189.454 306.4147,-184.251"/>
</g>
<!-- comandroidsupportsupportfragment&#45;&gt;comandroidsupportsupportcoreui -->
<g id="edge37" class="edge">
<title>comandroidsupportsupportfragment&#45;&gt;comandroidsupportsupportcoreui</title>
<path fill="none" stroke="#000000" d="M377.9085,-215.8314C388.2772,-207.0485 400.8823,-196.3712 412.124,-186.8489"/>
<polygon fill="#000000" stroke="#000000" points="414.6489,-189.297 420.0172,-180.1628 410.1245,-183.9556 414.6489,-189.297"/>
</g>
<!-- comandroidsupportsupportvectordrawable&#45;&gt;comandroidsupportsupportcompat -->
<g id="edge38" class="edge">
<title>comandroidsupportsupportvectordrawable&#45;&gt;comandroidsupportsupportcompat</title>
<path fill="none" stroke="#000000" d="M65.6277,-215.9897C50.4199,-196.4316 32.1119,-165.1605 49.4594,-144 75.2042,-112.5964 185.6945,-99.0915 257.1087,-93.5595"/>
<polygon fill="#000000" stroke="#000000" points="257.6334,-97.0303 267.347,-92.8 257.1154,-90.0495 257.6334,-97.0303"/>
</g>
<!-- comandroidsupportanimatedvectordrawable&#45;&gt;comandroidsupportsupportvectordrawable -->
<g id="edge39" class="edge">
<title>comandroidsupportanimatedvectordrawable&#45;&gt;comandroidsupportsupportvectordrawable</title>
<path fill="none" stroke="#000000" d="M81.4594,-287.8314C81.4594,-280.131 81.4594,-270.9743 81.4594,-262.4166"/>
<polygon fill="#000000" stroke="#000000" points="84.9595,-262.4132 81.4594,-252.4133 77.9595,-262.4133 84.9595,-262.4132"/>
</g>
<!-- comgoogleandroidgmsplayservicesbase -->
<g id="node22" class="node">
<title>comgoogleandroidgmsplayservicesbase</title>
<polygon fill="none" stroke="#000000" points="464.3444,-468 344.5744,-468 344.5744,-432 464.3444,-432 464.3444,-468"/>
<text text-anchor="middle" x="404.4594" y="-445.8" font-family="Times New Roman" font-size="14.00" fill="#000000">play&#45;services&#45;base</text>
</g>
<!-- comgoogleandroidgmsplayservicesgames&#45;&gt;comgoogleandroidgmsplayservicesbase -->
<g id="edge40" class="edge">
<title>comgoogleandroidgmsplayservicesgames&#45;&gt;comgoogleandroidgmsplayservicesbase</title>
<path fill="none" stroke="#000000" d="M439.4192,-575.9806C435.2456,-557.7468 428.3827,-528.7874 421.4594,-504 419.0909,-495.5203 416.2985,-486.3631 413.6688,-478.0409"/>
<polygon fill="#000000" stroke="#000000" points="416.9659,-476.8604 410.5813,-468.4054 410.2998,-478.9965 416.9659,-476.8604"/>
</g>
<!-- comgoogleandroidgmsplayservicesdrive -->
<g id="node24" class="node">
<title>comgoogleandroidgmsplayservicesdrive</title>
<polygon fill="none" stroke="#000000" points="592.2361,-540 468.6827,-540 468.6827,-504 592.2361,-504 592.2361,-540"/>
<text text-anchor="middle" x="530.4594" y="-517.8" font-family="Times New Roman" font-size="14.00" fill="#000000">play&#45;services&#45;drive</text>
</g>
<!-- comgoogleandroidgmsplayservicesgames&#45;&gt;comgoogleandroidgmsplayservicesdrive -->
<g id="edge41" class="edge">
<title>comgoogleandroidgmsplayservicesgames&#45;&gt;comgoogleandroidgmsplayservicesdrive</title>
<path fill="none" stroke="#000000" d="M465.4132,-575.8314C476.1289,-566.9632 489.1783,-556.1637 500.7684,-546.5718"/>
<polygon fill="#000000" stroke="#000000" points="503.0402,-549.2349 508.5127,-540.1628 498.5772,-543.8422 503.0402,-549.2349"/>
</g>
<!-- comgoogleandroidgmsplayservicesbasement -->
<g id="node23" class="node">
<title>comgoogleandroidgmsplayservicesbasement</title>
<polygon fill="none" stroke="#000000" points="460.3401,-396 312.5787,-396 312.5787,-360 460.3401,-360 460.3401,-396"/>
<text text-anchor="middle" x="386.4594" y="-373.8" font-family="Times New Roman" font-size="14.00" fill="#000000">play&#45;services&#45;basement</text>
</g>
<!-- comgoogleandroidgmsplayservicesbase&#45;&gt;comgoogleandroidgmsplayservicesbasement -->
<g id="edge42" class="edge">
<title>comgoogleandroidgmsplayservicesbase&#45;&gt;comgoogleandroidgmsplayservicesbasement</title>
<path fill="none" stroke="#000000" d="M399.9172,-431.8314C397.971,-424.0463 395.6526,-414.7729 393.4931,-406.1347"/>
<polygon fill="#000000" stroke="#000000" points="396.8836,-405.2658 391.0627,-396.4133 390.0926,-406.9636 396.8836,-405.2658"/>
</g>
<!-- comgoogleandroidgmsplayservicesbasement&#45;&gt;comandroidsupportsupportv4 -->
<g id="edge43" class="edge">
<title>comgoogleandroidgmsplayservicesbasement&#45;&gt;comandroidsupportsupportv4</title>
<path fill="none" stroke="#000000" d="M361.4775,-359.8314C349.1666,-350.8779 334.1487,-339.9558 320.8657,-330.2955"/>
<polygon fill="#000000" stroke="#000000" points="322.5793,-327.214 312.4333,-324.1628 318.4621,-332.8752 322.5793,-327.214"/>
</g>
<!-- comgoogleandroidgmsplayservicesdrive&#45;&gt;comgoogleandroidgmsplayservicesbase -->
<g id="edge44" class="edge">
<title>comgoogleandroidgmsplayservicesdrive&#45;&gt;comgoogleandroidgmsplayservicesbase</title>
<path fill="none" stroke="#000000" d="M498.6643,-503.8314C482.3989,-494.5368 462.4208,-483.1208 445.0543,-473.1971"/>
<polygon fill="#000000" stroke="#000000" points="446.6633,-470.0854 436.2443,-468.1628 443.1903,-476.1631 446.6633,-470.0854"/>
</g>
<!-- comgoogleandroidgmsplayservicesplus&#45;&gt;comgoogleandroidgmsplayservicesbase -->
<g id="edge45" class="edge">
<title>comgoogleandroidgmsplayservicesplus&#45;&gt;comgoogleandroidgmsplayservicesbase</title>
<path fill="none" stroke="#000000" d="M366.3289,-503.8314C372.1429,-495.6232 379.129,-485.7606 385.524,-476.7323"/>
<polygon fill="#000000" stroke="#000000" points="388.4925,-478.5966 391.4167,-468.4133 382.7804,-474.5505 388.4925,-478.5966"/>
</g>
<!-- combadlogicgamesgdxgdxbackendandroid&#45;&gt;combadlogicgamesgdxgdx -->
<g id="edge46" class="edge">
<title>combadlogicgamesgdxgdxbackendandroid&#45;&gt;combadlogicgamesgdxgdx</title>
<path fill="none" stroke="#000000" d="M620.7316,-647.7573C621.7948,-628.5632 625.7486,-598.1265 639.4594,-576 681.7963,-507.6769 775.4099,-473.2145 827.5583,-458.7224"/>
<polygon fill="#000000" stroke="#000000" points="828.6527,-462.0527 837.4077,-456.0861 826.8427,-455.2908 828.6527,-462.0527"/>
</g>
</g>
</svg>
